<?xml version="1.0" encoding="iso-8859-1"?>
<!-- Generator: Adobe Illustrator 16.0.0, SVG Export Plug-In . SVG Version: 6.00 Build 0)  -->
<!DOCTYPE svg PUBLIC "-//W3C//DTD SVG 1.1//EN" "http://www.w3.org/Graphics/SVG/1.1/DTD/svg11.dtd">
<svg version="1.1" id="Capa_1" xmlns="http://www.w3.org/2000/svg" xmlns:xlink="http://www.w3.org/1999/xlink" x="0px" y="0px"
	 width="303.339px" height="303.339px" viewBox="0 0 303.339 303.339" style="enable-background:new 0 0 303.339 303.339;"
	 xml:space="preserve">
<g>
	<path d="M277.722,41.613V13.832c0-5.092-4.131-9.223-9.223-9.223H22.542c-5.089,0-9.223,4.131-9.223,9.223v27.67H9.224
		C4.128,41.502,0,45.633,0,50.725c0,5.092,4.128,9.224,9.224,9.224h4.095v27.67c0,5.092,4.134,9.224,9.223,9.224h245.957
		c5.092,0,9.223-4.131,9.223-9.224v-27.46c4.018,0.528,7.17,3.837,7.17,7.999v43.018c0,4.525-3.675,8.209-8.202,8.209H237.91
		l-64.731-1.021h-13.307c-14.7,0-26.656,11.953-26.656,26.655v18.435h-7.686c-5.095,0-9.223,4.131-9.223,9.224v116.829
		c0,5.092,4.128,9.224,9.223,9.224h33.819c5.098,0,9.224-4.132,9.224-9.224V172.677c0-5.093-4.126-9.224-9.224-9.224h-7.687v-18.435
		c0-4.524,3.681-8.208,8.209-8.208l77.888,1.021h38.93c14.699,0,26.649-11.952,26.649-26.655V68.157
		C303.339,53.818,291.929,42.166,277.722,41.613z"/>
</g>
<g>
</g>
<g>
</g>
<g>
</g>
<g>
</g>
<g>
</g>
<g>
</g>
<g>
</g>
<g>
</g>
<g>
</g>
<g>
</g>
<g>
</g>
<g>
</g>
<g>
</g>
<g>
</g>
<g>
</g>
</svg>
